Coordinates
version=1
nRows=32
nColumns=22
inDegrees=yes

Units are S.I. units (second, meters, Newtons, ...)
If the header above contains a line with 'inDegrees', this indicates whether rotational values are in degrees (yes) or radians (no).

endheader
time	pelvis_tilt	pelvis_list	pelvis_rotation	pelvis_tx	pelvis_ty	pelvis_tz	hip_flexion_r	hip_adduction_r	hip_rotation_r	knee_angle_r	ankle_angle_r	subtalar_angle_r	hip_flexion_l	hip_adduction_l	hip_rotation_l	knee_angle_l	ankle_angle_l	subtalar_angle_l	lumbar_extension	lumbar_bending	lumbar_rotation
      1.35000000	     -0.43878788	     -4.09136979	     -1.82735389	     -1.74321750	      1.02025303	     -0.32437319	      3.61403969	      8.34183829	     -9.75246641	    -14.95535440	     11.55670687	     -4.09048297	     15.32338600	     -5.59714355	      0.65062453	    -33.23871981	     12.74366259	     -0.33705966	    -14.78752733	      3.68672157	      6.22096311
      1.36000000	     -0.38928623	     -4.11445423	     -1.76427460	     -1.74168166	      1.02034358	     -0.32371598	      3.36941384	      8.41909095	     -9.78213724	    -14.77706999	     11.56157979	     -4.07358088	     15.89133903	     -5.53514860	      0.88473574	    -34.21634512	     12.83297870	     -0.47739645	    -14.85440823	      3.70238746	      6.34389670
      1.37000000	     -0.35898645	     -4.12115184	     -1.71747841	     -1.74007478	      1.02042807	     -0.32308500	      3.13032668	      8.47788979	     -9.79817070	    -14.57903476	     11.57623445	     -4.05155740	     16.46838759	     -5.43694390	      1.13262365	    -35.11069924	     12.89556385	     -0.61631920	    -14.89932476	      3.70078713	      6.48833714
      1.38000000	     -0.34465960	     -4.11880142	     -1.68978789	     -1.73842699	      1.02050282	     -0.32244788	      2.90187781	      8.52710200	     -9.79741672	    -14.37571708	     11.58830281	     -4.02505187	     17.05398408	     -5.31705755	      1.38385436	    -35.91855816	     12.93107562	     -0.73593964	    -14.93325653	      3.68321830	      6.64942047
      1.39000000	     -0.34095316	     -4.10196737	     -1.69184778	     -1.73674414	      1.02057384	     -0.32179587	      2.67782218	      8.56090914	     -9.76992059	    -14.16619172	     11.60388261	     -3.99778067	     17.63721745	     -5.17459721	      1.61926499	    -36.62645042	     12.92278298	     -0.81644544	    -14.96455276	      3.64296373	      6.83171594
      1.40000000	     -0.36434854	     -4.07366153	     -1.71944446	     -1.73501965	      1.02060652	     -0.32114379	      2.47775039	      8.58149821	     -9.71852860	    -13.95519045	     11.62096208	     -3.96858542	     18.23617590	     -5.01382943	      1.84295182	    -37.23092081	     12.86693106	     -0.86391046	    -14.97164608	      3.58914760	      7.03981098
      1.41000000	     -0.40418306	     -4.03387140	     -1.77780429	     -1.73326189	      1.02061644	     -0.32047469	      2.29038029	      8.58930350	     -9.63805127	    -13.74168350	     11.64271179	     -3.94059509	     18.83593240	     -4.84065200	      2.04307957	    -37.72289682	     12.75827864	     -0.87144345	    -14.96993766	      3.51789264	      7.27175746
      1.42000000	     -0.46506625	     -3.98712604	     -1.86217778	     -1.73146323	      1.02058721	     -0.31980179	      2.12077028	      8.58837001	     -9.53699494	    -13.52707001	     11.66758940	     -3.91307018	     19.44218701	     -4.66103798	      2.22097043	    -38.09957461	     12.60600921	     -0.84124177	    -14.95395434	      3.43845190	      7.52779075
      1.43000000	     -0.49634637	     -3.93502329	     -1.95565474	     -1.72960038	      1.02060356	     -0.31913599	      1.90225034	      8.58210584	     -9.40759463	    -13.29081186	     11.70056285	     -3.89338587	     19.99519653	     -4.47168856	      2.39620708	    -38.34874707	     12.40187235	     -0.80851981	    -14.98119989	      3.35009402	      7.78054402
      1.44000000	     -0.63023650	     -3.88969058	     -2.08955241	     -1.72768083	      1.02043236	     -0.31842432	      1.80030513	      8.58234429	     -9.28743306	    -13.07496611	     11.72237802	     -3.85708920	     20.65225670	     -4.31360418	      2.50257271	    -38.49854291	     12.18054609	     -0.69422608	    -14.88963952	      3.26678234	      8.08583795
      1.45000000	     -0.68634307	     -3.84731574	     -2.19559172	     -1.72567280	      1.02038049	     -0.31778814	      1.58310477	      8.58463117	     -9.15114291	    -12.81070771	     11.75295271	     -3.83502429	     21.20237257	     -4.13933295	      2.64910353	    -38.50842367	     11.91115959	     -0.63285314	    -14.89808681	      3.19430045	      8.34322374
      1.46000000	     -0.78379514	     -3.81059865	     -2.32338548	     -1.72357665	      1.02024670	     -0.31711857	      1.40192597	      8.59371123	     -9.01107486	    -12.54254439	     11.77077887	     -3.80187176	     21.78203831	     -3.98904709	      2.74760986	    -38.40281194	     11.61729247	     -0.53810397	    -14.85890754	      3.12247092	      8.62058459
      1.47000000	     -0.94386140	     -3.78621883	     -2.46963536	     -1.72138062	      1.01999032	     -0.31642627	      1.28633594	      8.61521601	     -8.88740059	    -12.28524639	     11.79567575	     -3.74374367	     22.41342792	     -3.87682786	      2.77871934	    -38.17774269	     11.33972713	     -0.35223031	    -14.74367371	      3.06460588	      8.92281451
      1.48000000	     -1.05922401	     -3.77351737	     -2.57806417	     -1.71908352	      1.01978269	     -0.31582041	      1.09390879	      8.64737296	     -8.77180666	    -11.98482800	     11.81756132	     -3.68842081	     22.98573005	     -3.75857314	      2.84825111	    -37.83733564	     11.04247383	     -0.20439472	    -14.68693336	      3.02826171	      9.17864560
      1.49000000	     -1.15337547	     -3.77470225	     -2.66346084	     -1.71665765	      1.01959642	     -0.31527231	      0.85392810	      8.69329244	     -8.66288594	    -11.65317684	     11.84598140	     -3.64730768	     23.50766164	     -3.64799845	      2.92566500	    -37.35848200	     10.74111778	     -0.11686105	    -14.65396670	      3.01606643	      9.39174766
      1.50000000	     -1.30001338	     -3.77950044	     -2.77655925	     -1.71414204	      1.01929271	     -0.31469503	      0.67236111	      8.74074730	     -8.55050977	    -11.33897421	     11.87319015	     -3.53786010	     24.08321485	     -3.57139412	      2.91527615	    -36.80026548	     10.44588830	      0.11806368	    -14.56278116	      3.00247616	      9.65208445
      1.51000000	     -1.39674998	     -3.79911625	     -2.83687079	     -1.71148961	      1.01903998	     -0.31420872	      0.40545143	      8.80284502	     -8.46902331	    -10.97840499	     11.90078446	     -3.49019672	     24.58522305	     -3.48671092	      2.95231661	    -36.12484078	     10.13351373	      0.21204315	    -14.53040569	      3.01363467	      9.82965357
      1.52000000	     -1.51631893	     -3.81416233	     -2.93253546	     -1.70872788	      1.01872108	     -0.31370333	      0.16591606	      8.85494803	     -8.37044850	    -10.64018576	     11.93261028	     -3.36309116	     25.09929369	     -3.42640849	      2.89342440	    -35.37329645	      9.81874038	      0.47085790	    -14.47404469	      3.01783590	     10.05826637
      1.53000000	     -1.61317290	     -3.84832693	     -2.98500965	     -1.70585928	      1.01838539	     -0.31328095	     -0.11537648	      8.92754939	     -8.27899094	    -10.28139632	     11.98416151	     -3.30369238	     25.57876920	     -3.36108277	      2.89576727	    -34.54202194	      9.50102177	      0.60640516	    -14.45020647	      3.04948567	     10.21455094
      1.54000000	     -1.69783425	     -3.87046021	     -3.07828920	     -1.70285730	      1.01802850	     -0.31281542	     -0.40443795	      8.97927399	     -8.17895567	     -9.95191954	     12.05003021	     -3.16794519	     26.03035717	     -3.31728459	      2.78951867	    -33.65708728	      9.19587704	      0.93508250	    -14.44371959	      3.05660723	     10.43391379
      1.55000000	     -1.78138714	     -3.91942975	     -3.13028573	     -1.69975856	      1.01759811	     -0.31244820	     -0.70039337	      9.05904324	     -8.07388518	     -9.62463397	     12.13422767	     -3.11704299	     26.47776888	     -3.27299060	      2.76090414	    -32.72495869	      8.88238471	      1.08965236	    -14.44392365	      3.10868766	     10.57938935
      1.56000000	     -1.82357648	     -3.94615383	     -3.24642051	     -1.69651389	      1.01719001	     -0.31198691	     -1.03336656	      9.10566134	     -7.95271116	     -9.33208210	     12.23837180	     -2.99217465	     26.86102825	     -3.25316604	      2.59249122	    -31.75816292	      8.59727161	      1.48609625	    -14.49697680	      3.11103385	     10.80792171
      1.57000000	     -1.86287483	     -3.99753957	     -3.34086102	     -1.69317098	      1.01670270	     -0.31158069	     -1.36325736	      9.17588372	     -7.82764651	     -9.06519264	     12.36292490	     -2.91280619	     27.23997888	     -3.24562957	      2.47132973	    -30.77210996	      8.31877702	      1.80530730	    -14.55969395	      3.14759470	     10.99558211
      1.58000000	     -1.88500219	     -4.05580371	     -3.45353616	     -1.68971045	      1.01616864	     -0.31116010	     -1.69822596	      9.24785655	     -7.68287274	     -8.84161343	     12.51531985	     -2.84675305	     27.59101742	     -3.25919490	      2.32245259	    -29.77463472	      8.06214588	      2.12932128	    -14.64875803	      3.18586187	     11.19427933
      1.59000000	     -1.88237346	     -4.13106583	     -3.57579561	     -1.68613920	      1.01559362	     -0.31074655	     -2.04090086	      9.32981660	     -7.53338959	     -8.67098602	     12.69568960	     -2.78656174	     27.90593654	     -3.29757576	      2.17200189	    -28.77118520	      7.84626392	      2.49676351	    -14.77338356	      3.24078960	     11.40044130
      1.60000000	     -1.86978758	     -4.21573148	     -3.70580016	     -1.68244094	      1.01495487	     -0.31031219	     -2.38512046	      9.41849056	     -7.37764872	     -8.53416695	     12.89699807	     -2.74065564	     28.20776689	     -3.36162071	      1.98988726	    -27.78065633	      7.62648683	      2.85643590	    -14.91141006	      3.29877448	     11.59715155
      1.61000000	     -1.84956062	     -4.30546285	     -3.86157774	     -1.67862634	      1.01425600	     -0.30983535	     -2.71191380	      9.50587430	     -7.20402484	     -8.46394688	     13.11990892	     -2.71239290	     28.48744599	     -3.45327892	      1.77597385	    -26.79381810	      7.41541934	      3.16880840	    -15.06162151	      3.35261683	     11.80848322
      1.62000000	     -1.81174771	     -4.41228571	     -4.01662651	     -1.67468589	      1.01350965	     -0.30936010	     -3.04479962	      9.60668152	     -7.02818518	     -8.43577036	     13.37001349	     -2.69021442	     28.74214716	     -3.57177938	      1.55286435	    -25.82601283	      7.20699671	      3.50667756	    -15.23471920	      3.42226577	     12.00874784
      1.63000000	     -1.79036968	     -4.52158194	     -4.18867280	     -1.67062452	      1.01266364	     -0.30884566	     -3.33711330	      9.70703511	     -6.82679103	     -8.46935541	     13.66177213	     -2.68869230	     29.00890025	     -3.71658738	      1.28645346	    -24.88597761	      6.96042205	      3.72325049	    -15.38777281	      3.48951779	     12.18748491
      1.64000000	     -1.73932378	     -4.63770397	     -4.37457440	     -1.66640652	      1.01180765	     -0.30829218	     -3.65266394	      9.80835869	     -6.61785146	     -8.54073260	     13.96682081	     -2.68536203	     29.22606781	     -3.88810476	      0.98730992	    -23.96544311	      6.73482005	      4.00119929	    -15.57297365	      3.55175644	     12.38107544
      1.65000000	     -1.68364139	     -4.76059856	     -4.56014859	     -1.66203790	      1.01090046	     -0.30772071	     -3.96179928	      9.91299224	     -6.41112622	     -8.65322033	     14.28717127	     -2.68666453	     29.42767494	     -4.07940199	      0.67098729	    -23.07682883	      6.49536094	      4.27081893	    -15.75912514	      3.61399014	     12.55767355
      1.66000000	     -1.62401650	     -4.88525589	     -4.75257649	     -1.65750901	      1.00994879	     -0.30712293	     -4.26578395	     10.01607975	     -6.19395244	     -8.80560869	     14.62164877	     -2.69153329	     29.61191858	     -4.28983519	      0.31923033	    -22.22430394	      6.24764791	      4.52124877	    -15.94395303	      3.67141716	     12.71407497
